<svg xmlns="http://www.w3.org/2000/svg" width="46.677" height="61.342">
    <path fill="#414141" fill-rule="evenodd" d="M27.367 31.467a.16.16 0 0 1 .053-.029c.236-.129.467-.263.694-.406 5.964-3.699 8.546-11.279 5.773-17.978-2.771-6.7-9.954-10.232-16.784-8.627a14.487 14.487 0 0 0-.852.228l-.009.001a.597.597 0 0 1-.663-.357l-.355-.858c-.198-.458.034-.669.282-.773.613-.261.948-.906.828-1.538A1.381 1.381 0 0 0 14.652.05h-.002l-.183.06a19.5 19.5 0 0 0-4.308 1.993C2.201 7.036-1.242 17.149 2.455 26.084c2.75 6.647 8.757 10.959 15.402 11.848v.003c.674.07 1.204.622 1.239 1.304l.001.071c0 .04-.001.079-.005.117 0 1.41-1.346 1.709-3.687 2.631-.813.319-1.619.634-2.372 1.047-.143.077-.286.157-.425.24-.011.006-.02.013-.031.018-.084.05-.169.101-.253.154l-.002.002c-.247.18-.381.368-.381.567 0 .46.733.883 1.955 1.213.815.22 1.85.4 3.027.519.905.092 1.892.148 2.933.163a26.336 26.336 0 0 0 1.13 0 34.045 34.045 0 0 0 2.932-.163c1.178-.121 2.213-.299 3.029-.519 1.22-.33 1.953-.753 1.953-1.213 0-.199-.134-.387-.381-.567-.004-.004-.007-.007-.011-.007a6.887 6.887 0 0 0-.273-.167 12.879 12.879 0 0 0-.427-.24c-.752-.413-1.558-.728-2.37-1.045-1.789-.704-3.687-1.14-3.687-2.603l-.001-.005a1.65 1.65 0 0 1-.004-.229 1.384 1.384 0 0 1 1.165-1.28c.024 0 .047-.006.071-.008a19.547 19.547 0 0 0 1.865-.342 19.736 19.736 0 0 0 4.454-1.641c.059-.03.115-.057.17-.088h.004a1.382 1.382 0 0 0-1.247-2.455l-.063.028c.032-.019.065-.033.098-.051a.6.6 0 0 1-.781-.325l-.353-.858a.593.593 0 0 1 .238-.736zM10.954 16.81c.546 1.633 1.709 3.204 4.665 4.511 1.533.679 1.605 2.726 3.718 5.19 1.312 1.527 2.368 2.266 3.402 2.761.067.029.131.062.186.099a.856.856 0 0 1 .341.37.375.375 0 0 1-.141.478.875.875 0 0 1-.355.135c-.008 0-.015.003-.02.005-.046.008-.083.013-.107.02-5.441 1.038-11.048-1.844-13.251-7.169-1.856-4.481-.784-9.443 2.331-12.761.352-.359.944-.515.958.145-.199 2.114-2.72 3.247-1.727 6.216zm14.34 17.804c-.013.005-.026.011-.039.014l-.031.012c-.333.099-.669.19-1.004.267C16.398 36.747 8.174 32.7 5 25.03c-3.176-7.67-.218-16.352 6.612-20.586.296-.185.602-.36.914-.528a.595.595 0 0 1 .833.301l.355.854a.6.6 0 0 1-.216.724c-.003.002-.005.004-.009.004a.382.382 0 0 1-.082.045 18.04 18.04 0 0 0-.68.396C6.762 9.939 4.179 17.521 6.952 24.222c2.771 6.698 9.957 10.23 16.787 8.624a11.377 11.377 0 0 0 .833-.222.595.595 0 0 1 .69.353l.356.856a.599.599 0 0 1-.324.781zm1.897-6.134a.517.517 0 0 0-.154.104l-.227.149a.662.662 0 0 1-.1.035c-.601.169-1.167-.537-1.326-1.03a7.066 7.066 0 0 1-.253-1.513c-.017-.238-.022-.491-.017-.759.061-2.63 2.735-5.437-.344-6.387-1.277-.394-2.563.026-3.737.543a22.37 22.37 0 0 0-.346.158c-1.509.693-2.811 1.435-3.646.627-2.013-1.949-.07-3.949 1.115-3.513.689.252 1.174.481 1.531.559.181.043.33.043.456-.009a.598.598 0 0 0 .139-.087c.409-.367-.053-.723-.454-1.258a2.91 2.91 0 0 1-.24-.374c-.403-.759-.505-1.225-.275-1.833.169-.451.522-.977 1.07-1.756.954-1.359.224-2.591-.656-3.065-.424-.231-.985-.198-1.538.007a3.75 3.75 0 0 0-1.359.885c-.496.508-.962.697-1.372.677-.487-.022-.898-.335-1.191-.759a.309.309 0 0 0-.045-.07 2.3 2.3 0 0 1-.139-.24 1.086 1.086 0 0 1 .104-.98c.095-.153.234-.287.414-.386a11.958 11.958 0 0 1 3.104-1.204c4.098-.964 8.351.334 11.224 3.25.786 1.045.744 2.711-1.014 3.826-1.764 1.112-.59 2.467 1.397 2.642 1.989.172 3.031 1.257 3.044 2.294a11.955 11.955 0 0 1-5.165 9.467z"/>
</svg>
