<svg xmlns="http://www.w3.org/2000/svg" width="24" height=".6cm">
    <defs>
        <linearGradient id="a" x1="0%" x2="0%" y1="100%" y2="0%">
            <stop offset="0%" stop-color="#3D454F"/>
            <stop offset="100%" stop-color="#FF6868"/>
        </linearGradient>
    </defs>
    <path fill-rule="evenodd" d="M18 10.422v6.577h-3.858v-6.137c0-1.541-.558-2.594-1.955-2.594-1.066 0-1.7.71-1.979 1.396-.102.245-.128.586-.128.929v6.406H6.221s.052-10.393 0-11.47h3.859v1.626l-.026.037h.026v-.037c.512-.781 1.428-1.896 3.477-1.896 2.539 0 4.443 1.64 4.443 5.163zM2.184-.001C.864-.001 0 .855 0 1.981c0 1.101.839 1.983 2.133 1.983h.025c1.346 0 2.183-.882 2.183-1.983C4.316.855 3.504-.001 2.184-.001zm-1.955 17h3.858V5.529H.229v11.47z"/>
    <path fill="url(#a)" d="M18 10.422v6.577h-3.858v-6.137c0-1.541-.558-2.594-1.955-2.594-1.066 0-1.7.71-1.979 1.396-.102.245-.128.586-.128.929v6.406H6.221s.052-10.393 0-11.47h3.859v1.626l-.026.037h.026v-.037c.512-.781 1.428-1.896 3.477-1.896 2.539 0 4.443 1.64 4.443 5.163zM2.184-.001C.864-.001 0 .855 0 1.981c0 1.101.839 1.983 2.133 1.983h.025c1.346 0 2.183-.882 2.183-1.983C4.316.855 3.504-.001 2.184-.001zm-1.955 17h3.858V5.529H.229v11.47z"/>
</svg>
