<svg xmlns="http://www.w3.org/2000/svg" width="46.677" height="61.342">
    <path fill="#3A424C" fill-rule="evenodd" d="M32.149 45.987H2.871c-1.583 0-2.865-1.298-2.865-2.898V2.929C.006 1.331 1.288.031 2.871.031h15.97c.434 0 .845.093 1.215.267.322.146.611.352.857.601l3.05 3.083 7.145 7.23 2.899 2.932.288.292a2.952 2.952 0 0 1 .719 1.943v26.71c0 1.6-1.282 2.898-2.865 2.898zm-1.041-4.685V17.141a1.967 1.967 0 0 0-1.703-1.959.052.052 0 0 1 .008-.019h-8.055a1.31 1.31 0 0 1-1.302-1.316V5.692a.046.046 0 0 1-.017.009 1.964 1.964 0 0 0-1.936-1.719H4.54a.653.653 0 0 0-.628.636l-.001.023.001.022v36.693l-.001.023.001.023a.647.647 0 0 0 .606.631c.014.005.03.005.045.005.013 0 .029 0 .044-.005h25.81c.014.005.029.005.045.005.015 0 .029 0 .044-.005a.648.648 0 0 0 .602-.731zm-5.817-16.201H10.277a1.743 1.743 0 0 1-1.486-1.732v-.195c0-.884.649-1.615 1.493-1.734h15c.844.119 1.492.85 1.492 1.734v.195c0 .882-.646 1.613-1.485 1.732zm-10.365-9.485H10.277a1.743 1.743 0 0 1-1.486-1.733v-.192c0-.886.649-1.618 1.493-1.734h4.635a1.742 1.742 0 0 1 1.492 1.734v.192c0 .883-.646 1.614-1.485 1.733zm-4.642 15.231h10.557c.844.119 1.492.85 1.492 1.735v.194c0 .882-.646 1.614-1.485 1.732H10.277a1.742 1.742 0 0 1-1.486-1.732v-.194c0-.885.649-1.616 1.493-1.735z"/>
</svg>
