<svg xmlns="http://www.w3.org/2000/svg" width="61.342" height="61.342">
    <path fill="#3A424C" fill-rule="evenodd" d="M23 46C10.297 46 0 35.702 0 22.999c0-12.702 10.297-23 23-23 12.702 0 23 10.298 23 23C46 35.702 35.702 46 23 46zm9.332-5.189a20.214 20.214 0 0 0 8.474-8.483l-6.885-5.739a11.529 11.529 0 0 1-7.329 7.333l5.74 6.889zm-.707-17.812A8.625 8.625 0 0 0 23 14.375a8.624 8.624 0 0 0-8.625 8.624 8.625 8.625 0 1 0 17.25 0zM13.668 40.811l5.74-6.889a11.529 11.529 0 0 1-7.329-7.333l-6.885 5.739a20.214 20.214 0 0 0 8.474 8.483zm-8.474-27.14l6.885 5.738a11.53 11.53 0 0 1 7.329-7.332l-5.74-6.889a20.22 20.22 0 0 0-8.474 8.483zm27.138-8.483l-5.74 6.889a11.53 11.53 0 0 1 7.329 7.332l6.885-5.738a20.214 20.214 0 0 0-8.474-8.483z"/>
</svg>
